# xmcd
#
# Track frame offsets:
#	150
#	53877
#	89235
#	136417
#
# Disc length: 2698 seconds
#
# Revision: 1
# Processed by: cddbd v1.5.1PL0 Copyright (c) Steve Scherf et al.
# Submitted via: CDex 1.50Beta5
#
DISCID=370a8804
DTITLE=Nature - 自然のシンフォニー 3
DYEAR=1900
DGENRE=
TTITLE0=波濤を越えて
TTITLE1=オンブラ・マイ・フ
TTITLE2=精霊の踊り
TTITLE3=アイネ・クライネ・ナハト・ムジーク
EXTD=
EXTT0=
EXTT1=
EXTT2=
EXTT3=
PLAYORDER=
